<svg width="256" height="166" viewBox="0 0 256 166" fill="none" xmlns="http://www.w3.org/2000/svg">
<g clip-path="url(#clip0)">
<rect width="256" height="166" fill="white"/>
<path d="M30.4971 112.449C27.8653 112.449 25.8616 111.731 24.4859 110.295C23.1701 108.86 22.5121 106.976 22.5121 104.643C22.5121 101.952 23.2598 99.7983 24.7551 98.1833C26.3102 96.5684 28.4635 95.7609 31.2148 95.7609C33.8466 95.7609 35.8204 96.4188 37.1363 97.7347C38.512 98.9908 39.1998 100.875 39.1998 103.387C39.1998 106.138 38.4222 108.351 36.8671 110.026C35.312 111.641 33.1887 112.449 30.4971 112.449Z" fill="#01F500"/>
<path d="M53.7195 112.449C51.4467 112.449 49.8317 111.252 48.8747 108.86C47.9775 106.467 47.5289 102.639 47.5289 97.3758C47.5289 89.6002 48.6355 82.2134 50.8485 75.2153C51.3868 73.4808 52.2541 72.2247 53.4504 71.4471C54.7064 70.6098 56.441 70.1911 58.6541 70.1911C59.8503 70.1911 60.6877 70.3406 61.1662 70.6397C61.6447 70.9387 61.8839 71.5069 61.8839 72.3443C61.8839 73.3013 61.4353 75.4546 60.5381 78.8041C59.94 81.1966 59.4615 83.29 59.1026 85.0844C58.7438 86.8189 58.4447 89.0021 58.2055 91.6338C59.8204 86.9685 61.7344 83.0208 63.9475 79.791C66.2203 76.5611 68.5231 74.1686 70.8558 72.6135C73.2483 70.9985 75.4913 70.1911 77.5847 70.1911C79.6781 70.1911 81.1436 70.6696 81.9809 71.6266C82.8781 72.5836 83.3267 74.049 83.3267 76.0228C83.3267 77.9368 82.7585 81.4059 81.6221 86.4302C81.1436 88.5834 80.8146 90.1983 80.6351 91.275C83.6258 83.918 86.9454 78.5648 90.5939 75.2153C94.2425 71.8658 97.6518 70.1911 100.822 70.1911C104.71 70.1911 106.654 72.135 106.654 76.0228C106.654 78.3555 105.996 82.5723 104.68 88.6731C103.543 93.8768 102.975 97.316 102.975 98.9908C102.975 101.383 103.842 102.58 105.577 102.58C106.773 102.58 108.179 101.862 109.794 100.426C111.468 98.931 113.682 96.5385 116.433 93.2488C117.151 92.4114 117.958 91.9927 118.855 91.9927C119.633 91.9927 120.231 92.3516 120.65 93.0693C121.128 93.7871 121.367 94.774 121.367 96.0301C121.367 98.4226 120.799 100.277 119.663 101.593C117.091 104.763 114.31 107.365 111.319 109.398C108.388 111.432 105.039 112.449 101.27 112.449C98.22 112.449 95.9172 111.581 94.3621 109.847C92.807 108.052 92.0294 105.48 92.0294 102.131C92.0294 100.456 92.4481 97.4656 93.2855 93.1591C94.0631 89.3909 94.4518 86.789 94.4518 85.3535C94.4518 84.3965 94.1229 83.918 93.4649 83.918C92.6874 83.918 91.5808 84.9348 90.1453 86.9685C88.7098 88.9423 87.2743 91.574 85.8388 94.8637C84.4033 98.1534 83.237 101.623 82.3398 105.271C81.6819 108.142 80.9043 110.056 80.0071 111.013C79.1697 111.97 77.7941 112.449 75.8801 112.449C73.9062 112.449 72.4109 111.522 71.3941 109.667C70.4371 107.753 69.9586 105.451 69.9586 102.759C69.9586 100.486 70.2577 97.1964 70.8558 92.8899C71.3343 89.0619 71.5736 86.5498 71.5736 85.3535C71.5736 84.3965 71.2446 83.918 70.5866 83.918C69.6895 83.918 68.553 84.9947 67.1773 87.1479C65.8016 89.3012 64.4559 92.0525 63.14 95.402C61.8839 98.7515 60.8671 102.041 60.0896 105.271C59.4316 108.082 58.6541 109.996 57.7569 111.013C56.9195 111.97 55.5737 112.449 53.7195 112.449ZM125.866 64.2696C123.354 64.2696 121.47 63.7014 120.214 62.565C118.958 61.3687 118.33 59.7239 118.33 57.6304C118.33 55.537 119.137 53.8024 120.752 52.4268C122.427 50.9913 124.49 50.2735 126.943 50.2735C129.156 50.2735 130.95 50.8118 132.326 51.8884C133.701 52.9651 134.389 54.4903 134.389 56.4641C134.389 58.8566 133.612 60.7706 132.057 62.2061C130.501 63.5818 128.438 64.2696 125.866 64.2696ZM125.148 112.449C121.26 112.449 118.419 111.073 116.625 108.322C114.89 105.57 114.023 101.922 114.023 97.3758C114.023 94.6843 114.352 91.2451 115.01 87.0582C115.728 82.8115 116.625 78.8639 117.702 75.2153C118.24 73.3013 118.958 71.9854 119.855 71.2677C120.752 70.5499 122.188 70.1911 124.161 70.1911C127.212 70.1911 128.737 71.2079 128.737 73.2415C128.737 74.7368 128.169 78.2059 127.032 83.6489C125.597 90.2283 124.879 94.6843 124.879 97.017C124.879 98.8113 125.118 100.187 125.597 101.144C126.075 102.101 126.883 102.58 128.019 102.58C129.096 102.58 130.442 101.832 132.057 100.337C133.672 98.8413 135.825 96.4787 138.516 93.2488C139.234 92.4114 140.042 91.9927 140.939 91.9927C141.716 91.9927 142.314 92.3516 142.733 93.0693C143.212 93.7871 143.451 94.774 143.451 96.0301C143.451 98.4226 142.883 100.277 141.746 101.593C135.825 108.83 130.292 112.449 125.148 112.449ZM142.562 112.449C140.289 112.449 138.674 111.252 137.717 108.86C136.82 106.467 136.372 102.639 136.372 97.3758C136.372 89.6002 137.478 82.2134 139.691 75.2153C140.229 73.4808 141.097 72.2247 142.293 71.4471C143.549 70.6098 145.284 70.1911 147.497 70.1911C148.693 70.1911 149.53 70.3406 150.009 70.6397C150.487 70.9387 150.727 71.5069 150.727 72.3443C150.727 73.3013 150.278 75.4546 149.381 78.8041C148.783 81.1966 148.304 83.29 147.945 85.0844C147.586 86.8788 147.287 89.0918 147.048 91.7236C149.022 86.5797 151.235 82.3928 153.687 79.1629C156.14 75.9331 158.532 73.6303 160.865 72.2546C163.257 70.8789 165.44 70.1911 167.414 70.1911C171.302 70.1911 173.246 72.135 173.246 76.0228C173.246 78.3555 172.588 82.5723 171.272 88.6731C170.136 93.8768 169.567 97.316 169.567 98.9908C169.567 101.383 170.435 102.58 172.169 102.58C173.366 102.58 174.771 101.862 176.386 100.426C178.061 98.931 180.274 96.5385 183.025 93.2488C183.743 92.4114 184.55 91.9927 185.448 91.9927C186.225 91.9927 186.823 92.3516 187.242 93.0693C187.721 93.7871 187.96 94.774 187.96 96.0301C187.96 98.4226 187.392 100.277 186.255 101.593C183.683 104.763 180.902 107.365 177.911 109.398C174.98 111.432 171.631 112.449 167.863 112.449C164.812 112.449 162.51 111.581 160.954 109.847C159.399 108.052 158.622 105.48 158.622 102.131C158.622 100.456 159.04 97.4656 159.878 93.1591C160.655 89.3909 161.044 86.789 161.044 85.3535C161.044 84.3965 160.715 83.918 160.057 83.918C159.28 83.918 158.173 84.9348 156.738 86.9685C155.362 88.9423 153.926 91.574 152.431 94.8637C150.996 98.1534 149.829 101.623 148.932 105.271C148.274 108.082 147.497 109.996 146.599 111.013C145.762 111.97 144.416 112.449 142.562 112.449ZM213.359 91.9927C214.017 96.8973 214.974 101.742 216.23 106.527C216.469 107.305 216.588 108.112 216.588 108.95C216.588 111.641 214.944 112.987 211.654 112.987C209.8 112.987 208.364 112.478 207.347 111.462C206.39 110.445 205.493 108.531 204.656 105.72L204.566 105.361C202.293 108.172 200.23 110.056 198.376 111.013C196.581 111.97 194.488 112.449 192.095 112.449C188.447 112.449 185.426 111.103 183.034 108.411C180.701 105.66 179.535 102.101 179.535 97.7347C179.535 92.9497 180.551 88.5236 182.585 84.4563C184.619 80.3891 187.4 77.0695 190.929 74.4976C194.458 71.8658 198.405 70.2808 202.772 69.7425C203.908 58.4379 206.061 48.5988 209.232 40.225C212.461 31.8513 216.738 27.6644 222.061 27.6644C224.633 27.6644 226.757 28.8307 228.431 31.1634C230.166 33.4961 231.033 37.025 231.033 41.7502C231.033 48.3296 229.418 56.0155 226.188 64.8079C222.958 73.6004 218.682 82.662 213.359 91.9927ZM221.074 36.4568C219.34 36.4568 217.695 40.8829 216.14 49.7352C214.645 58.5874 213.628 68.2173 213.089 78.6246C219.729 64.2696 223.048 52.6062 223.048 43.6343C223.048 41.3614 222.839 39.597 222.42 38.3409C222.061 37.0849 221.613 36.4568 221.074 36.4568ZM195.235 103.387C196.432 103.387 197.568 102.938 198.645 102.041C199.781 101.144 201.217 99.4095 202.951 96.8375C202.353 92.4712 202.054 87.9554 202.054 83.29C202.054 81.4358 202.084 80.0003 202.144 78.9835C198.854 79.9405 196.133 82.1237 193.979 85.533C191.826 88.9423 190.749 92.7105 190.749 96.8375C190.749 101.204 192.245 103.387 195.235 103.387Z" fill="black"/>
</g>
<defs>
<clipPath id="clip0">
<rect width="256" height="166" fill="white"/>
</clipPath>
</defs>
</svg>
